<?xml version="1.0" encoding="utf-8"?>
<!-- Generator: Adobe Illustrator 18.1.0, SVG Export Plug-In . SVG Version: 6.00 Build 0)  -->
<svg version="1.1" id="Layer_1" xmlns="http://www.w3.org/2000/svg" xmlns:xlink="http://www.w3.org/1999/xlink" x="0px" y="0px"
	 viewBox="0 0 56.7 56.7" enable-background="new 0 0 56.7 56.7" xml:space="preserve">
<g>
	<path fill="#FBBD19" d="M28.3,7.1C16.7,7.1,7.4,16.5,7.4,28s9.4,21,20.9,21c11.6,0,20.9-9.4,20.9-20.9S39.9,7.1,28.3,7.1z"/>
</g>
<rect x="26.6" y="10.5" fill="#FFFFFF" width="3.5" height="18.4"/>
<path fill="#FFFFFF" d="M28.3,45.7c-9.2,0-16.7-7.5-16.7-16.7c0-6.3,3.5-12.1,9.2-14.9l1.6,3.1c-4.5,2.3-7.3,6.8-7.3,11.8
	c0,7.3,6,13.3,13.3,13.3s13.3-6,13.3-13.3c0-5-2.8-9.6-7.3-11.8l1.6-3.1c5.7,2.9,9.2,8.6,9.2,14.9C45.1,38.2,37.6,45.7,28.3,45.7z"
	/>
</svg>
