<?xml version="1.0" encoding="utf-8"?>
<!-- Generator: Adobe Illustrator 18.1.0, SVG Export Plug-In . SVG Version: 6.00 Build 0)  -->
<svg version="1.1" id="Layer_1" xmlns="http://www.w3.org/2000/svg" xmlns:xlink="http://www.w3.org/1999/xlink" x="0px" y="0px"
	 viewBox="0 0 960 560" enable-background="new 0 0 960 560" xml:space="preserve">
<g>
	<path fill="#D9DADE" d="M479.5,70.1c-114.6,0-206.4,92.8-206.4,206.4S365.9,484,479.5,484c114.6,0,206.4-92.8,206.4-206.4
		S594.1,70.1,479.5,70.1z"/>
</g>
<rect x="462.7" y="103.7" fill="#FFFFFF" width="34.6" height="181.7"/>
<path fill="#FFFFFF" d="M479.5,451.4c-90.9,0-164.9-74.1-164.9-164.9c0-62.2,34.6-119.5,90.9-147.2l15.8,30.6
	c-44.4,22.7-72.1,67.2-72.1,116.5c0,72.1,59.3,131.4,131.4,131.4s131.4-59.3,131.4-131.4c0-49.4-27.7-94.8-72.1-116.5l15.8-30.6
	c56.3,28.6,90.9,84.9,90.9,147.2C645.4,377.3,571.4,451.4,479.5,451.4z"/>
</svg>
