<?xml version="1.0" encoding="utf-8"?>
<!-- Generator: Adobe Illustrator 18.1.0, SVG Export Plug-In . SVG Version: 6.00 Build 0)  -->
<svg version="1.1" id="Layer_1" xmlns="http://www.w3.org/2000/svg" xmlns:xlink="http://www.w3.org/1999/xlink" x="0px" y="0px"
	 viewBox="-213.3 399.9 168.3 43.5" enable-background="new -213.3 399.9 168.3 43.5" xml:space="preserve">
<path fill="#FBBD19" d="M-211.7,432c0,7.3,0.7,9.9,6.4,9.9H-52c5.9,0,5.7-2.6,5.7-9.9v-20.2c0-7.3,0.2-9.9-5.7-9.9h-153.2
	c-5.9,0-6.4,2.6-6.4,9.9V432H-211.7z"/>
<g>
	<g>
		<polygon fill="none" stroke="#0B3751" stroke-miterlimit="10" points="-194.6,419.5 -188.4,419.5 -188.6,421.8 -194.5,421.8 		"/>
		<polygon fill="none" stroke="#0B3751" stroke-miterlimit="10" points="-188.2,426.3 -187.9,422.6 -182.7,422.6 -183.6,426.3 		"/>
		<polygon fill="none" stroke="#0B3751" stroke-miterlimit="10" points="-188.3,427.1 -183.8,427.1 -184.3,429.2 -188.5,429.2 		"/>
		<path fill="none" stroke="#0B3751" stroke-miterlimit="10" d="M-200.9,420.4c-0.8-0.8-1.5-1.5-2.3-2.3h-2c-1.2,0-1.2-2.2,0-2.2
			h2.4c0.2,0,0.4,0.1,0.5,0.2c0.1,0,0.2,0.1,0.2,0.2c1,1,2,2,2.8,2.8c0.1,0.1,0.2,0.2,0.2,0.3h3.5l0.2,2.4h-5.3L-200.9,420.4z"/>
		<polygon fill="none" stroke="#0B3751" stroke-miterlimit="10" points="-182.5,421.8 -187.8,421.8 -187.6,419.5 -181.8,419.5 		"/>
		<polygon fill="none" stroke="#0B3751" stroke-miterlimit="10" points="-193.8,429.2 -194,427.1 -188.9,427.1 -189.1,429.2 		"/>
		<polygon fill="none" stroke="#0B3751" stroke-miterlimit="10" points="-200.4,422.6 -195,422.6 -194.8,426.3 -199.4,426.3 		"/>
		<polygon fill="none" stroke="#0B3751" stroke-miterlimit="10" points="-199.2,427.1 -194.7,427.1 -194.6,429.2 -198.6,429.2 		"/>
		<polygon fill="none" stroke="#0B3751" stroke-miterlimit="10" points="-194.4,422.6 -188.6,422.6 -188.9,426.3 -194,426.3 		"/>
		<circle fill="none" stroke="#0B3751" stroke-miterlimit="10" cx="-186.5" cy="431.8" r="1.9"/>
		<circle fill="none" stroke="#0B3751" stroke-miterlimit="10" cx="-196.4" cy="431.8" r="1.9"/>
	</g>
</g>
<path fill="#0B3751" d="M-194.4,415l-1.1,1.1l8,1.7l-1.5-8.1l-1.1,1.1c-5.5-5.7-11.7-1-11.7-1S-198.8,410.4-194.4,415z"/>
<line fill="none" stroke="#0B3751" stroke-miterlimit="10" x1="-171.2" y1="413.9" x2="-171.2" y2="432.5"/>
</svg>
