<?xml version="1.0" encoding="utf-8"?>
<!-- Generator: Adobe Illustrator 17.0.0, SVG Export Plug-In . SVG Version: 6.00 Build 0)  -->
<!DOCTYPE svg PUBLIC "-//W3C//DTD SVG 1.1//EN" "http://www.w3.org/Graphics/SVG/1.1/DTD/svg11.dtd">
<svg version="1.1" id="Layer_1" xmlns="http://www.w3.org/2000/svg" xmlns:xlink="http://www.w3.org/1999/xlink" x="0px" y="0px"
	 width="211.75px" height="56.69px" viewBox="0 0 211.75 56.69" enable-background="new 0 0 211.75 56.69" xml:space="preserve">
<g>
	<path fill="#ADADAD" stroke="#ADADAD" stroke-width="1.25" stroke-miterlimit="10" d="M41.593,35.125
		c0,3.353-1.238,6.044-3.713,8.075c-2.304,1.874-5.166,2.812-8.587,2.812H18.875V8.079h7.478c5.329,0,8.922,1.452,10.779,4.355
		c0.928,1.478,1.392,3.118,1.392,4.924c0,3.557-1.625,6.211-4.874,7.963c3.507,1.187,5.862,3.062,7.066,5.624
		C41.301,32.235,41.593,33.628,41.593,35.125z M34.605,17.377c0-3.706-2.536-5.559-7.607-5.559h-4.384v12.12h2.166
		c2.097,0,3.704-0.145,4.822-0.438c1.719-0.445,3.026-1.32,3.92-2.625C34.244,19.829,34.605,18.663,34.605,17.377z M37.674,35.181
		c0-1.788-0.602-3.317-1.805-4.59c-1.1-1.169-2.562-1.968-4.384-2.398c-1.289-0.309-3.533-0.464-6.73-0.464h-2.14v14.544h4.693
		c2.218,0,3.92-0.163,5.106-0.49c1.77-0.499,3.137-1.453,4.1-2.862C37.287,37.769,37.674,36.522,37.674,35.181z"/>
	<path fill="#ADADAD" stroke="#ADADAD" stroke-width="1.25" stroke-miterlimit="10" d="M73.86,45.985h-3.646V41.08
		c-3.092,3.761-6.909,5.64-11.451,5.64c-4.123,0-7.599-1.486-10.429-4.459c-2.795-2.92-4.193-6.461-4.193-10.623
		c0-4.109,1.428-7.623,4.284-10.545c2.856-2.92,6.337-4.381,10.442-4.381c4.7,0,8.482,1.994,11.346,5.981v-5.246h3.646V45.985z
		 M70.45,31.873c0-3.262-1.069-6.01-3.206-8.244c-2.137-2.233-4.829-3.35-8.073-3.35c-4.362,0-7.616,1.91-9.761,5.731
		c-1.03,1.815-1.544,3.733-1.544,5.758c0,2.024,0.515,3.948,1.544,5.771c1.029,1.823,2.411,3.246,4.147,4.266
		c1.736,1.021,3.598,1.531,5.588,1.531c2.006,0,3.908-0.506,5.705-1.518c1.797-1.012,3.18-2.381,4.148-4.109
		C69.966,35.981,70.45,34.037,70.45,31.873z"/>
	<path fill="#ADADAD" stroke="#ADADAD" stroke-width="1.25" stroke-miterlimit="10" d="M102.183,46.012h-3.636v-13.37
		c0-3.229-0.129-5.383-0.386-6.466c-0.891-3.726-3.24-5.59-7.045-5.59c-2.177,0-4.126,0.718-5.849,2.151
		c-1.723,1.434-2.858,3.223-3.407,5.371c-0.343,1.339-0.514,3.882-0.514,7.625v10.279h-3.636V7.809h3.636v15.175
		c2.902-3.833,6.405-5.75,10.508-5.75c2.043,0,3.884,0.52,5.524,1.56c1.64,1.04,2.85,2.472,3.632,4.294
		c0.781,1.822,1.172,4.651,1.172,8.484V46.012z"/>
	<path fill="#ADADAD" stroke="#ADADAD" stroke-width="1.25" stroke-miterlimit="10" d="M192.375,46.012h-4.758l-14.402-12.61v12.61
		h-3.662V7.809h3.662V29.25l14.344-11.295h4.609L176.1,31.339L192.375,46.012z"/>
	<g>
		<path fill="#FDBD1A" stroke="#FDBD1A" stroke-width="0.5" stroke-miterlimit="10" d="M108.411,21.451l0.001,0.001l0.001-0.001
			c5.626-5.626,14.747-5.626,20.373,0v0.001l6.963,6.963l3.223,3.223l6.931,6.932c3.847,3.847,10.081,3.846,13.928,0
			c1.908-1.908,2.869-4.405,2.884-6.906c-0.002-2.518-0.963-5.035-2.884-6.956c-3.847-3.846-10.083-3.846-13.928,0l-4.383,4.383
			l-3.225-3.22l4.386-4.386l-0.001,0c5.615-5.615,14.712-5.626,20.341-0.032l0.034-0.035c2.829,2.829,4.234,6.541,4.219,10.249
			c0.002,3.688-1.405,7.377-4.219,10.192l-0.034-0.034c-5.629,5.593-14.725,5.583-20.34-0.032v-0.001l-6.931-6.931l-3.223-3.223
			l-6.963-6.963c-3.846-3.846-10.082-3.846-13.927,0c-3.847,3.847-3.847,10.082,0,13.928l-0.001,0.001
			c3.847,3.845,10.081,3.845,13.927-0.001l4.087-4.087l3.225,3.22l-4.09,4.09l0.001,0c-5.626,5.626-14.748,5.627-20.374,0
			C102.784,36.199,102.785,27.077,108.411,21.451z"/>
	</g>
	<g>
		<path fill="#ADADAD" stroke="#ADADAD" stroke-width="0.5" stroke-miterlimit="10" d="M138.972,31.637l6.931,6.932
			c3.846,3.847,10.081,3.846,13.928,0c1.908-1.908,2.869-4.405,2.884-6.906c-0.002-2.518-0.963-5.035-2.884-6.956
			c-3.847-3.846-10.083-3.846-13.928,0l-4.383,4.383l-3.225-3.22l4.386-4.386l-0.001,0c5.615-5.615,14.712-5.626,20.341-0.032
			l0.034-0.035c2.829,2.829,4.234,6.541,4.219,10.249c0.002,3.688-1.405,7.377-4.219,10.192l-0.034-0.034
			c-5.629,5.593-14.725,5.583-20.34-0.032v-0.001l-6.931-6.931L138.972,31.637z"/>
	</g>
</g>
</svg>
