<?xml version="1.0" encoding="utf-8"?>
<!-- Generator: Adobe Illustrator 18.1.0, SVG Export Plug-In . SVG Version: 6.00 Build 0)  -->
<svg version="1.1" id="Layer_1" xmlns="http://www.w3.org/2000/svg" xmlns:xlink="http://www.w3.org/1999/xlink" x="0px" y="0px"
	 viewBox="0 0 56.69 56.69" enable-background="new 0 0 56.69 56.69" xml:space="preserve">
<circle fill="#0B3751" cx="27.762" cy="28.345" r="20.333"/>
<g>
	<polygon fill="none" stroke="#FBBD19" stroke-miterlimit="10" points="26.34,22.331 33.911,22.331 33.672,25.184 26.579,25.184 	
		"/>
	<polygon fill="none" stroke="#FBBD19" stroke-miterlimit="10" points="34.094,30.556 34.459,26.024 40.789,26.024 39.628,30.556 	
		"/>
	<polygon fill="none" stroke="#FBBD19" stroke-miterlimit="10" points="34.023,31.395 39.404,31.395 38.706,34.081 33.804,34.081 	
		"/>
	<path fill="none" stroke="#FBBD19" stroke-miterlimit="10" d="M18.75,23.373c-0.924-0.926-1.849-1.882-2.773-2.721h-2.39
		c-1.511,0-1.511-2.686,0-2.686h2.874c0.281,0,0.513,0.098,0.699,0.222c0.108,0.059,0.215,0.148,0.316,0.25
		c1.158,1.159,2.316,2.326,3.473,3.485c0.127,0.127,0.217,0.239,0.278,0.407h4.255l0.239,2.854h-6.482L18.75,23.373z"/>
	<polygon fill="none" stroke="#FBBD19" stroke-miterlimit="10" points="41.013,25.184 34.529,25.184 34.768,22.331 41.77,22.331 	
		"/>
	<polygon fill="none" stroke="#FBBD19" stroke-miterlimit="10" points="27.305,34.081 27.085,31.395 33.166,31.395 32.946,34.081 	
		"/>
	<polygon fill="none" stroke="#FBBD19" stroke-miterlimit="10" points="19.463,26.024 25.792,26.024 26.157,30.556 20.624,30.556 	
		"/>
	<polygon fill="none" stroke="#FBBD19" stroke-miterlimit="10" points="20.848,31.395 26.228,31.395 26.448,34.081 21.545,34.081 	
		"/>
	<polygon fill="none" stroke="#FBBD19" stroke-miterlimit="10" points="26.649,26.024 33.602,26.024 33.236,30.556 27.015,30.556 	
		"/>
	<circle fill="none" stroke="#FBBD19" stroke-miterlimit="10" cx="36.117" cy="37.1" r="2.26"/>
	<circle fill="none" stroke="#FBBD19" stroke-miterlimit="10" cx="24.134" cy="37.1" r="2.26"/>
</g>
</svg>
