<?xml version="1.0" encoding="utf-8"?>
<!-- Generator: Adobe Illustrator 17.0.0, SVG Export Plug-In . SVG Version: 6.00 Build 0)  -->
<!DOCTYPE svg PUBLIC "-//W3C//DTD SVG 1.1//EN" "http://www.w3.org/Graphics/SVG/1.1/DTD/svg11.dtd">
<svg version="1.1" id="Layer_1" xmlns="http://www.w3.org/2000/svg" xmlns:xlink="http://www.w3.org/1999/xlink" x="0px" y="0px"
	 width="138.667px" height="47px" viewBox="18.5 8.167 138.667 47" enable-background="new 18.5 8.167 138.667 47"
	 xml:space="preserve">
<g id="Layer_1_1_" display="none">
	
		<image display="inline" overflow="visible" enable-background="new    " width="2560" height="1080" xlink:href="3FB7809F.jpeg"  transform="matrix(1 0 0 1 -1299.3334 -656.6667)">
	</image>
</g>
<g id="Layer_3">
</g>
<g id="Layer_2">
	<path fill="#B3B3B3" d="M150.254,52.84H22.663V10.461h127.59c2.42,0,4.399,1.979,4.399,4.399v33.58
		C154.653,50.86,152.673,52.84,150.254,52.84z"/>
	<path fill="#FFFFFF" d="M141.529,42.407c-0.828,0.543-1.734,0.979-2.725,1.289c-3.306,1.035-6.456,0.639-9.422-1.161
		c-0.026-0.016-0.049-0.038-0.072-0.057c0.002-0.087-0.052-0.131-0.118-0.175c-1.197-0.8-2.209-1.792-3.022-2.98
		c-0.722-1.056-1.245-2.204-1.568-3.444c-0.423-1.618-0.491-3.249-0.189-4.892c0.271-1.474,0.827-2.833,1.651-4.086
		c0.785-1.195,1.766-2.199,2.933-3.016c1.073-0.75,2.249-1.295,3.521-1.621c0.38-0.097,0.759-0.19,1.15-0.232
		c0.218-0.023,0.257,0.013,0.228,0.233c-0.167,1.244-0.34,2.488-0.515,3.731c-0.058,0.414,0.014,0.475,0.396,0.319
		c2.682-1.093,5.367-2.183,8.05-3.273c0.76-0.309,1.521-0.614,2.281-0.926c0.106-0.044,0.229-0.069,0.272-0.201
		c0.195-0.1,0.029-0.153-0.034-0.202c-1.839-1.433-3.681-2.864-5.522-4.296c-1.178-0.916-2.355-1.834-3.532-2.751
		c-0.063-0.049-0.122-0.103-0.175-0.148c-0.086,0.044-0.047,0.119-0.086,0.16c-0.103,0.057-0.106,0.165-0.118,0.26
		c-0.128,0.917-0.257,1.835-0.381,2.752c-0.009,0.062-0.013,0.124-0.025,0.185c-0.041,0.21-0.102,0.251-0.313,0.268
		c-0.694,0.056-1.384,0.147-2.062,0.308c-0.061,0.014-0.123,0.032-0.135,0.109c-0.536,0.153-1.077,0.29-1.604,0.477
		c-2.642,0.946-4.843,2.512-6.61,4.69c-0.34,0.42-0.643,0.867-0.954,1.308c-0.416,0.693-0.81,1.398-1.128,2.143
		c-0.846,1.985-1.264,4.055-1.187,6.212c0.158,4.397,1.878,8.071,5.22,10.938c2.684,2.303,5.825,3.505,9.364,3.54
		c2.71,0.027,5.173-0.589,7.386-1.82C142.188,44.7,141.79,43.585,141.529,42.407z"/>
	<path fill="#FFFFFF" d="M66.437,35.069c-1.229,0-2.051-0.201-2.464-0.603c-0.528,0.402-1.028,0.603-1.499,0.603h-8.169
		c-0.643,0-1.18-0.265-1.612-0.793c-0.402-0.494-0.603-1.071-0.603-1.732v-2.343h1.55v2.134c0,0.444,0.086,0.752,0.258,0.929
		c0.172,0.175,0.474,0.263,0.905,0.263h7.211c0.43,0,0.726-0.088,0.891-0.263c0.164-0.177,0.247-0.485,0.247-0.929v-2.134h1.576
		v2.128c0,0.793,0.569,1.189,1.706,1.189L66.437,35.069L66.437,35.069z M57.993,27.617c0,0.265-0.098,0.482-0.29,0.655
		c-0.193,0.172-0.42,0.258-0.683,0.258c-0.735,0-1.103-0.304-1.103-0.913c0-0.569,0.333-0.853,0.999-0.853
		C57.634,26.764,57.993,27.048,57.993,27.617z M60.983,27.617c0,0.265-0.098,0.482-0.29,0.655c-0.193,0.173-0.422,0.258-0.692,0.258
		c-0.735,0-1.103-0.304-1.103-0.913c0-0.569,0.339-0.853,1.017-0.853C60.627,26.764,60.983,27.048,60.983,27.617z"/>
	<path fill="#FFFFFF" d="M79.852,35.069h-0.595l-0.56-0.095c-0.42-0.074-0.752-0.327-0.999-0.758
		c-0.477,0.672-1.065,1.008-1.766,1.008c-0.735,0-1.45-0.351-2.145-1.051c-0.621,0.7-1.356,1.051-2.206,1.051
		s-1.55-0.365-2.102-1.094c-0.396,0.448-0.977,0.733-1.741,0.853c-0.362,0.057-1.031,0.086-2.008,0.086v-1.542h1.421
		c0.535,0,0.891-0.066,1.068-0.198c0.293-0.214,0.439-0.596,0.439-1.149v-1.979h1.516v2.3c0,0.368,0.135,0.669,0.405,0.905
		c0.254,0.224,0.566,0.336,0.934,0.336c0.708,0,1.064-0.322,1.064-0.965v-2.576h1.516v2.283c0,0.368,0.129,0.669,0.391,0.905
		c0.261,0.236,0.578,0.353,0.945,0.353c0.718,0,1.077-0.322,1.077-0.965v-2.576h1.533v2.384c0,0.628,0.603,0.942,1.81,0.942v1.541
		H79.852z M72.329,27.737c0,0.265-0.098,0.488-0.29,0.672c-0.193,0.184-0.42,0.275-0.683,0.275c-0.293,0-0.546-0.086-0.758-0.258
		c-0.23-0.178-0.344-0.408-0.344-0.69c0-0.563,0.333-0.844,0.999-0.844C71.971,26.893,72.329,27.175,72.329,27.737z M72.864,26.497
		c-0.299,0-0.554-0.083-0.767-0.25c-0.23-0.184-0.344-0.42-0.344-0.707c0-0.557,0.348-0.836,1.043-0.836
		c0.265,0,0.497,0.066,0.698,0.198c0.241,0.149,0.362,0.348,0.362,0.595c0,0.282-0.095,0.518-0.284,0.711
		C73.381,26.401,73.146,26.497,72.864,26.497z M75.336,27.737c0,0.27-0.098,0.495-0.29,0.676s-0.425,0.272-0.7,0.272
		c-0.293,0-0.549-0.086-0.767-0.258c-0.218-0.172-0.327-0.402-0.327-0.69c0-0.563,0.333-0.844,0.999-0.844
		C74.975,26.893,75.336,27.175,75.336,27.737z"/>
	<path fill="#FFFFFF" d="M86.236,33.01c0,0.661-0.256,1.177-0.767,1.55c-0.454,0.339-1.02,0.508-1.698,0.508H79.24v-1.542h4.532
		c0.592,0,0.888-0.196,0.888-0.586c0-0.214-0.095-0.421-0.284-0.621l-4.127-4.295l-0.293-1.741l5.729-2.061l0.215,1.554l-4.084,1.55
		l3.989,4.401C86.092,32.048,86.236,32.476,86.236,33.01z M85.297,23.347l-5.419,1.956l-0.069-0.597l5.445-1.956L85.297,23.347z"/>
	<path fill="#FFFFFF" d="M90.601,34.802c0,1.137-0.356,2.111-1.068,2.921c-0.747,0.844-1.683,1.266-2.809,1.266h-2.051l-0.258-1.594
		h1.741c0.747,0,1.39-0.178,1.93-0.535c0.614-0.413,0.922-0.979,0.922-1.698V30.2h1.594L90.601,34.802L90.601,34.802z M90.54,25.988
		c0,0.304-0.103,0.561-0.31,0.771c-0.207,0.21-0.463,0.315-0.767,0.315c-0.793,0-1.189-0.362-1.189-1.086
		c0-0.626,0.379-0.939,1.137-0.939C90.164,25.049,90.54,25.362,90.54,25.988z"/>
	<path fill="#FFFFFF" d="M95.916,35.069c-1.309,0-2.231-0.253-2.766-0.758c-0.356-0.327-0.535-0.864-0.535-1.611v-7.331h1.55v6.651
		c0,0.718,0.121,1.158,0.362,1.318c0.149,0.098,0.612,0.158,1.387,0.181v1.551H95.916z"/>
	<path fill="#FFFFFF" d="M100.061,32.545c0,0.666-0.207,1.247-0.621,1.741c-0.437,0.523-0.979,0.784-1.629,0.784H95.27v-1.542
		c1.626,0,2.53-0.031,2.714-0.095c0.344-0.126,0.517-0.593,0.517-1.4c0-0.201-0.005-0.507-0.014-0.915
		c-0.009-0.409-0.012-0.715-0.012-0.916h1.585L100.061,32.545L100.061,32.545z M98.234,37.964c0,0.304-0.106,0.559-0.316,0.762
		c-0.21,0.204-0.463,0.306-0.761,0.306c-0.769,0-1.154-0.356-1.154-1.068c0-0.621,0.37-0.931,1.111-0.931
		C97.861,37.034,98.234,37.344,98.234,37.964z"/>
</g>
</svg>
