<?xml version="1.0" encoding="utf-8"?>
<!-- Generator: Adobe Illustrator 17.0.0, SVG Export Plug-In . SVG Version: 6.00 Build 0)  -->
<!DOCTYPE svg PUBLIC "-//W3C//DTD SVG 1.1//EN" "http://www.w3.org/Graphics/SVG/1.1/DTD/svg11.dtd">
<svg version="1.1" id="Layer_1" xmlns="http://www.w3.org/2000/svg" xmlns:xlink="http://www.w3.org/1999/xlink" x="0px" y="0px"
	 width="138.667px" height="47px" viewBox="18.5 8.167 138.667 47" enable-background="new 18.5 8.167 138.667 47"
	 xml:space="preserve">
<g id="Layer_1_1_" display="none">
	
		<image display="inline" overflow="visible" enable-background="new    " width="2560" height="1080" xlink:href="1669F917.jpeg"  transform="matrix(1 0 0 1 -1299.3334 -656.6667)">
	</image>
</g>
<g id="Layer_3">
</g>
<path fill="#589905" d="M25.28,52.86h127.617V10.473H25.28c-2.42,0-4.4,1.98-4.4,4.4V48.46C20.881,50.88,22.861,52.86,25.28,52.86z"
	/>
<polyline fill="none" stroke="#FFFFFF" stroke-width="5" stroke-miterlimit="10" points="48.984,15.708 29.8,31.295 48.984,46.882 
	"/>
<g>
	<path fill="#FFFFFF" d="M90.79,36.843c-0.802,0-1.388-0.106-1.755-0.316c-0.184-0.109-0.823-0.67-1.918-1.684
		c-0.694,1.469-1.813,2.204-3.357,2.204c-1.014,0-1.85-0.33-2.51-0.989c-0.66-0.66-0.989-1.497-0.989-2.51
		c0-1.062,0.711-2.302,2.132-3.724l-0.521-0.592l1.235-1.245l5.499,5.846c0.483,0.51,0.792,0.806,0.928,0.888
		c0.258,0.157,0.677,0.251,1.255,0.286V36.843z M85.535,33.669c0-0.449-0.116-0.786-0.347-1.01l-1.48-1.469
		c-0.571,0.537-0.928,0.898-1.072,1.082c-0.361,0.463-0.541,0.928-0.541,1.398c0,0.476,0.16,0.862,0.48,1.158
		c0.319,0.296,0.721,0.444,1.204,0.444c0.47,0,0.879-0.151,1.23-0.454C85.359,34.514,85.535,34.132,85.535,33.669z"/>
	<path fill="#FFFFFF" d="M98.391,33.394c0,1.054-0.262,1.918-0.786,2.592c-0.571,0.741-1.371,1.112-2.398,1.112
		c-0.782,0-1.472-0.231-2.071-0.694c-0.592,0.258-1.629,0.405-3.112,0.438v-1.826c1.04,0,1.649-0.102,1.826-0.306
		c0.055-0.068,0.092-0.539,0.112-1.411c0.061-2.529,1.159-3.792,3.296-3.792c1.02,0,1.816,0.408,2.388,1.224
		C98.142,31.445,98.391,32.333,98.391,33.394z M96.788,33.292c0-1.326-0.527-1.99-1.581-1.99c-1.075,0-1.612,0.687-1.612,2.061
		c0,1.272,0.537,1.908,1.612,1.908C96.262,35.271,96.788,34.611,96.788,33.292z"/>
	<path fill="#FFFFFF" d="M102.096,36.843H100.3V25.068h1.796V36.843z"/>
	<path fill="#FFFFFF" d="M112.281,34.442c0,0.737-0.276,1.328-0.827,1.777c-0.51,0.416-1.139,0.624-1.887,0.624h-5.694l-0.255-1.826
		h5.826c0.68,0,1.02-0.24,1.02-0.719c0-0.247-0.092-0.47-0.275-0.669l-4.135-4.396l1.236-1.246l4.14,4.371
		C111.999,32.964,112.281,33.657,112.281,34.442z"/>
	<path fill="#FFFFFF" d="M115.793,36.843h-1.796V25.068h1.796V36.843z"/>
</g>
</svg>
