<?xml version="1.0" encoding="utf-8"?>
<!-- Generator: Adobe Illustrator 18.1.0, SVG Export Plug-In . SVG Version: 6.00 Build 0)  -->
<svg version="1.1" id="Layer_1" xmlns="http://www.w3.org/2000/svg" xmlns:xlink="http://www.w3.org/1999/xlink" x="0px" y="0px"
	 viewBox="0 0 56.69 56.69" enable-background="new 0 0 56.69 56.69" xml:space="preserve">
<g>
	<circle fill="#EF4234" cx="28.208" cy="28.466" r="19.096"/>
	<g>
		<path fill="#FFFFFF" d="M23.775,26.936v3.063c0,0,2.966-0.004,4.172-0.004c-0.654,1.985-1.671,3.067-4.172,3.067
			c-2.532,0-4.509-2.056-4.509-4.595c0-2.536,1.977-4.593,4.509-4.593c1.34,0,2.203,0.472,2.998,1.128
			c0.635-0.635,0.581-0.727,2.197-2.256c-1.371-1.249-3.195-2.012-5.194-2.012c-4.264,0-7.718,3.463-7.718,7.733
			c0,4.272,3.454,7.733,7.718,7.733c6.372,0,7.93-5.559,7.412-9.265h-7.412V26.936z"/>
		<polygon fill="#FFFFFF" points="37.685,27.089 37.685,24.41 35.774,24.41 35.774,27.089 33.023,27.089 33.023,29.003 
			35.774,29.003 35.774,31.76 37.685,31.76 37.685,29.003 40.36,29.003 40.36,27.089 		"/>
	</g>
</g>
</svg>
