<?xml version="1.0" encoding="utf-8"?>
<!-- Generator: Adobe Illustrator 18.1.0, SVG Export Plug-In . SVG Version: 6.00 Build 0)  -->
<svg version="1.1" id="Layer_1" xmlns="http://www.w3.org/2000/svg" xmlns:xlink="http://www.w3.org/1999/xlink" x="0px" y="0px"
	 viewBox="0 0 88.5 41.8" enable-background="new 0 0 88.5 41.8" xml:space="preserve">
<path fill="#E2E2E2" d="M29,29c0,5.4,0.6,7.3,6.6,7.3h42.6c6,0,5.8-1.9,5.8-7.3v-15c0-5.4,0.2-7.3-5.8-7.3H35.6
	c-6,0-6.6,1.9-6.6,7.3V29z"/>
<path fill="#073A54" d="M5.1,29c0,5.4,0.5,7.3,5,7.3h33.6V6.6H10.1c-4.5,0-5,1.9-5,7.3V29z"/>
<g>
	<rect x="16.6" y="13.5" fill="none" stroke="#FDC114" stroke-miterlimit="10" width="7.4" height="7.4"/>
	<rect x="26" y="13.5" fill="none" stroke="#FDC114" stroke-miterlimit="10" width="7.4" height="7.4"/>
	<rect x="26" y="22.7" fill="none" stroke="#FDC114" stroke-miterlimit="10" width="7.4" height="7.4"/>
	<rect x="16.6" y="22.7" fill="none" stroke="#FDC114" stroke-miterlimit="10" width="7.4" height="7.4"/>
</g>
<rect x="47.3" y="14" fill="none" stroke="#073A54" stroke-miterlimit="10" width="7.4" height="7.4"/>
<rect x="47.3" y="23.2" fill="none" stroke="#073A54" stroke-miterlimit="10" width="7.4" height="7.4"/>
<line fill="none" stroke="#073A54" stroke-miterlimit="10" x1="75.6" y1="14.9" x2="59" y2="14.9"/>
<line fill="none" stroke="#073A54" stroke-miterlimit="10" x1="75.6" y1="17.2" x2="59" y2="17.2"/>
<line fill="none" stroke="#073A54" stroke-miterlimit="10" x1="75.6" y1="19.5" x2="66.8" y2="19.5"/>
<line fill="none" stroke="#073A54" stroke-miterlimit="10" x1="75.6" y1="23.2" x2="59" y2="23.2"/>
<line fill="none" stroke="#073A54" stroke-miterlimit="10" x1="75.6" y1="25.5" x2="59" y2="25.5"/>
<line fill="none" stroke="#073A54" stroke-miterlimit="10" x1="75.6" y1="27.8" x2="66.8" y2="27.8"/>
</svg>
