<?xml version="1.0" encoding="utf-8"?>
<!-- Generator: Adobe Illustrator 18.1.0, SVG Export Plug-In . SVG Version: 6.00 Build 0)  -->
<svg version="1.1" id="Layer_1" xmlns="http://www.w3.org/2000/svg" xmlns:xlink="http://www.w3.org/1999/xlink" x="0px" y="0px"
	 viewBox="-213.3 399.9 168.3 43.5" enable-background="new -213.3 399.9 168.3 43.5" xml:space="preserve">
<g>
	<g>
		<polygon fill="none" stroke="#0B3751" stroke-miterlimit="10" points="-194.8,419.4 -188.5,419.4 -188.8,421.7 -194.6,421.7 		"/>
		<polygon fill="none" stroke="#0B3751" stroke-miterlimit="10" points="-188.3,426.1 -188.1,422.4 -182.9,422.4 -183.7,426.1 		"/>
		<polygon fill="none" stroke="#0B3751" stroke-miterlimit="10" points="-188.4,426.9 -184,426.9 -184.5,429.1 -188.7,429.1 		"/>
		<path fill="none" stroke="#0B3751" stroke-miterlimit="10" d="M-201.1,420.2c-0.8-0.8-1.5-1.5-2.3-2.3h-2c-1.2,0-1.2-2.2,0-2.2
			h2.4c0.2,0,0.4,0.1,0.5,0.2c0.1,0,0.2,0.1,0.2,0.2c1,1,2,2,2.8,2.8c0.1,0.1,0.2,0.2,0.2,0.3h3.5l0.2,2.4h-5.3L-201.1,420.2z"/>
		<polygon fill="none" stroke="#0B3751" stroke-miterlimit="10" points="-182.7,421.7 -188,421.7 -187.8,419.4 -182,419.4 		"/>
		<polygon fill="none" stroke="#0B3751" stroke-miterlimit="10" points="-194,429.1 -194.2,426.9 -189.1,426.9 -189.3,429.1 		"/>
		<polygon fill="none" stroke="#0B3751" stroke-miterlimit="10" points="-200.5,422.4 -195.2,422.4 -195,426.1 -199.6,426.1 		"/>
		<polygon fill="none" stroke="#0B3751" stroke-miterlimit="10" points="-199.3,426.9 -194.9,426.9 -194.8,429.1 -198.8,429.1 		"/>
		<polygon fill="none" stroke="#0B3751" stroke-miterlimit="10" points="-194.5,422.4 -188.8,422.4 -189.1,426.1 -194.2,426.1 		"/>
		<circle fill="none" stroke="#0B3751" stroke-miterlimit="10" cx="-186.7" cy="431.6" r="1.9"/>
		<circle fill="none" stroke="#0B3751" stroke-miterlimit="10" cx="-196.6" cy="431.6" r="1.9"/>
	</g>
</g>
<path fill="#0B3751" d="M-194.5,414.8l-1.1,1.1l8,1.7l-1.5-8.1l-1.1,1.1c-5.5-5.7-11.7-1-11.7-1S-199,410.2-194.5,414.8z"/>
<line fill="none" stroke="#0B3751" stroke-miterlimit="10" x1="-171.3" y1="413.7" x2="-171.3" y2="432.3"/>
<g>
	<path fill="#0B3751" stroke="#0B3751" stroke-miterlimit="10" d="M-211.5,431.8c0,7.3,0.7,9.9,6.4,9.9h152.7c5.9,0,5.6-2.6,5.6-9.9
		v-20.2c0-7.3,0.2-9.9-5.6-9.9h-152.7c-5.9,0-6.4,2.6-6.4,9.9L-211.5,431.8L-211.5,431.8z"/>
	<g>
		<polygon fill="none" stroke="#FDC114" stroke-miterlimit="10" points="-195.1,419.4 -188.8,419.4 -189,421.6 -194.9,421.6 		"/>
		<polygon fill="none" stroke="#FDC114" stroke-miterlimit="10" points="-188.7,426.1 -188.4,422.4 -183.2,422.4 -184.2,426.1 		"/>
		<polygon fill="none" stroke="#FDC114" stroke-miterlimit="10" points="-188.8,426.7 -184.4,426.7 -184.9,429 -188.9,429 		"/>
		<path fill="none" stroke="#FDC114" stroke-miterlimit="10" d="M-201.4,420.2c-0.8-0.8-1.5-1.5-2.3-2.3h-2c-1.2,0-1.2-2.2,0-2.2
			h2.4c0.2,0,0.4,0.1,0.5,0.2c0.1,0,0.2,0.1,0.2,0.2c1,1,2,2,2.8,2.8c0.1,0.1,0.2,0.2,0.2,0.3h3.5l0.2,2.4h-5.3L-201.4,420.2z"/>
		<polygon fill="none" stroke="#FDC114" stroke-miterlimit="10" points="-183.1,421.6 -188.4,421.6 -188.2,419.4 -182.4,419.4 		"/>
		<polygon fill="none" stroke="#FDC114" stroke-miterlimit="10" points="-194.4,429 -194.5,426.7 -189.5,426.7 -189.7,429 		"/>
		<polygon fill="none" stroke="#FDC114" stroke-miterlimit="10" points="-200.8,422.4 -195.6,422.4 -195.2,426.1 -199.8,426.1 		"/>
		<polygon fill="none" stroke="#FDC114" stroke-miterlimit="10" points="-199.7,426.7 -195.2,426.7 -195,429 -199,429 		"/>
		<polygon fill="none" stroke="#FDC114" stroke-miterlimit="10" points="-194.9,422.4 -189.2,422.4 -189.5,426.1 -194.6,426.1 		"/>
		<circle fill="none" stroke="#FDC114" stroke-miterlimit="10" cx="-187.1" cy="431.5" r="1.8"/>
		<circle fill="none" stroke="#FDC114" stroke-miterlimit="10" cx="-197" cy="431.5" r="1.8"/>
	</g>
	<polyline fill="none" stroke="#FDC114" stroke-width="2" stroke-miterlimit="10" points="-195.9,411.6 -192.5,414.6 -185.8,405.4 	
		"/>
	<line fill="none" stroke="#FDC114" stroke-miterlimit="10" x1="-171.6" y1="414.3" x2="-171.6" y2="433"/>
</g>
</svg>
