<?xml version="1.0" encoding="utf-8"?>
<!-- Generator: Adobe Illustrator 18.1.0, SVG Export Plug-In . SVG Version: 6.00 Build 0)  -->
<svg version="1.1" id="Layer_1" xmlns="http://www.w3.org/2000/svg" xmlns:xlink="http://www.w3.org/1999/xlink" x="0px" y="0px"
	 viewBox="0 0 56.69 56.69" enable-background="new 0 0 56.69 56.69" xml:space="preserve">
<g>
	<circle fill="#FDC114" cx="28.845" cy="29.157" r="19.107"/>
	<g>
		<polygon fill="#FFFFFF" points="15.291,37.322 23.347,27.682 15.291,21.211 		"/>
		<polygon fill="#FFFFFF" points="42.741,37.322 42.741,21.211 34.687,27.682 		"/>
		<polygon fill="#FFFFFF" points="42.674,37.997 42.741,37.997 42.741,37.941 		"/>
		<polygon fill="#FFFFFF" points="15.291,37.997 15.36,37.997 15.291,37.941 		"/>
		<polygon fill="#FFFFFF" points="42.271,37.997 42.223,37.941 34.067,28.181 29.017,32.239 23.965,28.181 15.809,37.941 
			15.76,37.997 		"/>
		<polygon fill="#FFFFFF" points="23.854,27.074 24.164,27.323 24.474,27.571 29.017,31.22 33.559,27.571 33.867,27.323 
			34.178,27.074 42.108,20.701 15.924,20.701 		"/>
	</g>
</g>
</svg>
