<?xml version="1.0" encoding="utf-8"?>
<!-- Generator: Adobe Illustrator 18.1.0, SVG Export Plug-In . SVG Version: 6.00 Build 0)  -->
<svg version="1.1" id="Layer_1" xmlns="http://www.w3.org/2000/svg" xmlns:xlink="http://www.w3.org/1999/xlink" x="0px" y="0px"
	 viewBox="0 0 56.69 56.69" enable-background="new 0 0 56.69 56.69" xml:space="preserve">
<g>
	<circle fill="#C6252D" cx="28.615" cy="28.267" r="19.008"/>
	<path id="Pinterest_13_" fill="#FFFFFF" d="M29.089,18.851c-4.857,0-8.796,3.939-8.796,8.798c0,3.601,2.165,6.695,5.266,8.056
		c-0.025-0.614-0.004-1.352,0.151-2.021c0.17-0.715,1.132-4.792,1.132-4.792s-0.281-0.562-0.281-1.392
		c0-1.304,0.757-2.276,1.696-2.276c0.801,0,1.187,0.602,1.187,1.321c0,0.803-0.514,2.006-0.776,3.121
		c-0.22,0.935,0.467,1.694,1.388,1.694c1.666,0,2.79-2.14,2.79-4.677c0-1.926-1.298-3.369-3.66-3.369
		c-2.669,0-4.331,1.989-4.331,4.211c0,0.767,0.226,1.308,0.579,1.725c0.163,0.193,0.184,0.27,0.126,0.49
		c-0.042,0.161-0.138,0.551-0.178,0.706c-0.059,0.222-0.239,0.304-0.44,0.22c-1.231-0.501-1.803-1.847-1.803-3.36
		c0-2.499,2.107-5.496,6.287-5.496c3.358,0,5.57,2.432,5.57,5.039c0,3.45-1.918,6.029-4.748,6.029c-0.95,0-1.842-0.514-2.149-1.096
		c0,0-0.511,2.027-0.618,2.417c-0.186,0.677-0.551,1.356-0.885,1.884c0.79,0.233,1.627,0.36,2.492,0.36
		c4.859,0,8.796-3.939,8.796-8.796C37.884,22.79,33.946,18.851,29.089,18.851z"/>
</g>
</svg>
