<?xml version="1.0" encoding="utf-8"?>
<!-- Generator: Adobe Illustrator 18.1.0, SVG Export Plug-In . SVG Version: 6.00 Build 0)  -->
<svg version="1.1" id="Layer_1" xmlns="http://www.w3.org/2000/svg" xmlns:xlink="http://www.w3.org/1999/xlink" x="0px" y="0px"
	 viewBox="1033.405 408.765 28.415 37" enable-background="new 1033.405 408.765 28.415 37" xml:space="preserve">
<rect x="-511" y="93" fill="#0B3751" width="54" height="54"/>
<rect x="-442" y="93" fill="#112D42" width="54" height="54"/>
<rect x="-168" y="93" fill="#FDC114" width="54" height="54"/>
<rect x="-100" y="93" fill="#FDB817" width="54" height="54"/>
<rect x="-374" y="93" fill="#989898" width="54" height="54"/>
<rect x="-306" y="93" fill="#B4B4B4" width="54" height="54"/>
<rect x="-236" y="93" fill="#E12228" width="54" height="54"/>
<path fill="#D9DADE" d="M338.778,142.884c-3.395-0.001-6.686,0.384-9.851,1.107c-2.787,0.636-5.466,1.55-8.026,2.684
	c-8.677,3.846-15.9,10.378-20.602,18.555c-7.694-13.3-22.076-22.239-38.543-22.208c-3.385-0.003-6.679,0.393-9.854,1.118
	c-19.786,4.518-34.536,22.243-34.498,43.392c0,0-2.669,51.299,65.513,93.846c5.411,3.377,11.265,6.708,17.612,9.936
	c86.089-44.308,82.755-104.078,82.755-104.078C383.236,162.696,363.309,142.834,338.778,142.884z"/>
<path fill="#FDB817" d="M342.03,338.409c-3.378-0.001-6.653,0.383-9.803,1.102c-2.773,0.633-5.44,1.543-7.986,2.671
	c-8.634,3.827-15.822,10.327-20.501,18.464c-7.656-13.235-21.967-22.13-38.354-22.099c-3.368-0.003-6.646,0.391-9.806,1.113
	c-19.689,4.496-34.367,22.134-34.329,43.179c0,0-2.656,51.048,65.192,93.387c5.385,3.361,11.209,6.675,17.526,9.888
	c85.667-44.091,82.35-103.568,82.35-103.568C386.27,358.124,366.44,338.359,342.03,338.409z"/>
<g>
	<g>
		<g>
			<defs>
				<rect id="SVGID_1_" x="431.677" y="139.748" width="196.769" height="158.766"/>
			</defs>
			<clipPath id="SVGID_2_">
				<use xlink:href="#SVGID_1_"  overflow="visible"/>
			</clipPath>
			<path clip-path="url(#SVGID_2_)" fill="#D9DADE" stroke="#FFFFFF" stroke-miterlimit="10" d="M627.869,196.687l-18.113-34.126
				c-0.614-1.156-1.661-1.953-2.848-2.279c-0.008-0.002-0.012-0.006-0.022-0.008l-75.454-20.368
				c-0.785-0.211-1.61-0.211-2.396-0.002l-75.834,20.368c-0.008,0.001-0.014,0.006-0.024,0.007
				c-1.188,0.327-2.236,1.123-2.851,2.281l-18.112,34.126c-0.59,1.113-0.7,2.418-0.303,3.613c0.397,1.193,1.266,2.176,2.405,2.712
				l15.758,7.45v46.616c0,1.768,1.012,3.383,2.604,4.149l75.55,36.462c0.634,0.307,1.319,0.46,2.001,0.46
				c0.677,0,1.352-0.157,1.974-0.452c0.01-0.002,0.02-0.002,0.029-0.008l75.548-36.462c1.595-0.769,2.606-2.381,2.606-4.149v-46.612
				c0-0.061-0.008-0.119-0.01-0.178l15.389-7.274c1.139-0.538,2.007-1.52,2.405-2.714
				C628.569,199.105,628.459,197.8,627.869,196.687L627.869,196.687z M530.228,149.127l60.336,16.287l-60.523,22.43l-60.492-22.42
				L530.228,149.127z M459.925,254.272v-39.366l50.039,23.653c0.622,0.296,1.295,0.442,1.968,0.442c0.538,0,1.076-0.094,1.59-0.281
				c1.16-0.427,2.099-1.301,2.61-2.426l10.126-22.397v72.391L459.925,254.272z M458.533,253.732v-40.656l51.783,24.427
				c0.644,0.305,1.34,0.457,2.037,0.457c0.557,0,1.113-0.097,1.646-0.291c1.201-0.441,2.173-1.344,2.701-2.506l10.479-23.131v74.762
				L458.533,253.732z M600.435,253.042l-66.333,32.015v-71.553l9.748,21.56c0.511,1.125,1.45,1.999,2.61,2.426
				c0.513,0.188,1.053,0.281,1.589,0.281c0.675,0,1.348-0.147,1.97-0.442l50.416-23.833L600.435,253.042L600.435,253.042z
				 M600.268,253.303l-66.334,32.908v-73.55l9.748,22.161c0.511,1.156,1.45,2.055,2.61,2.494c0.513,0.193,1.053,0.289,1.589,0.289
				c0.675,0,1.348-0.151,1.97-0.455l50.416-24.498v40.651H600.268z"/>
		</g>
		<g>
			<defs>
				<rect id="SVGID_3_" x="431.677" y="139.748" width="196.769" height="158.766"/>
			</defs>
			<clipPath id="SVGID_4_">
				<use xlink:href="#SVGID_3_"  overflow="visible"/>
			</clipPath>
			<path clip-path="url(#SVGID_4_)" fill="#FDB817" stroke="#FFFFFF" stroke-miterlimit="10" d="M636.491,422.163l-20.775-39.142
				c-0.704-1.326-1.905-2.24-3.267-2.614c-0.009-0.002-0.013-0.007-0.025-0.009l-86.546-23.362c-0.9-0.242-1.847-0.242-2.749-0.002
				l-86.982,23.362c-0.009,0.002-0.016,0.006-0.027,0.009c-1.362,0.375-2.565,1.288-3.27,2.617l-20.775,39.142
				c-0.677,1.276-0.803,2.774-0.348,4.144c0.456,1.369,1.452,2.495,2.758,3.11l18.075,8.545v53.468c0,2.028,1.16,3.88,2.987,4.759
				l86.656,41.821c0.727,0.352,1.513,0.527,2.296,0.527c0.777,0,1.551-0.18,2.265-0.519c0.011-0.002,0.022-0.002,0.033-0.009
				l86.654-41.821c1.829-0.882,2.989-2.731,2.989-4.759v-53.463c0-0.07-0.009-0.137-0.011-0.204l17.651-8.344
				c1.306-0.617,2.302-1.743,2.758-3.112C637.294,424.936,637.168,423.439,636.491,422.163L636.491,422.163z M524.497,367.611
				l69.205,18.681l-69.42,25.727l-69.384-25.716L524.497,367.611z M443.859,488.212v-45.153l57.395,27.13
				c0.713,0.339,1.486,0.507,2.258,0.507c0.617,0,1.234-0.107,1.824-0.323c1.331-0.489,2.408-1.492,2.993-2.783l11.615-25.689
				v83.032L443.859,488.212z M442.262,487.594v-46.632l59.395,28.018c0.738,0.35,1.537,0.524,2.336,0.524
				c0.638,0,1.277-0.111,1.888-0.333c1.377-0.505,2.492-1.541,3.098-2.874l12.02-26.531v85.752L442.262,487.594z M605.024,486.802
				l-76.085,36.721v-82.072l11.181,24.729c0.586,1.29,1.663,2.293,2.994,2.783c0.588,0.215,1.208,0.323,1.822,0.323
				c0.774,0,1.546-0.168,2.26-0.507l57.828-27.336L605.024,486.802L605.024,486.802z M604.833,487.102l-76.085,37.745v-84.362
				l11.181,25.419c0.586,1.326,1.663,2.357,2.994,2.86c0.588,0.221,1.208,0.332,1.822,0.332c0.774,0,1.546-0.173,2.26-0.521
				l57.828-28.099V487.102z"/>
		</g>
	</g>
</g>
<g>
	<g>
		<g>
			<defs>
				<rect id="SVGID_5_" x="430.498" y="332.006" width="200.306" height="161.619"/>
			</defs>
			<clipPath id="SVGID_6_">
				<use xlink:href="#SVGID_5_"  overflow="visible"/>
			</clipPath>
			<path clip-path="url(#SVGID_6_)" fill="#FDB817" stroke="#FFFFFF" stroke-miterlimit="10" d="M630.216,389.968l-18.438-34.739
				c-0.625-1.177-1.691-1.988-2.899-2.32c-0.008-0.002-0.012-0.006-0.022-0.008l-76.811-20.734c-0.799-0.215-1.639-0.215-2.44-0.002
				L452.409,352.9c-0.008,0.002-0.014,0.006-0.024,0.008c-1.209,0.333-2.276,1.143-2.902,2.322l-18.438,34.739
				c-0.601,1.133-0.713,2.462-0.308,3.678c0.404,1.215,1.288,2.215,2.448,2.76l16.042,7.584v47.453c0,1.8,1.03,3.443,2.651,4.224
				l76.908,37.117c0.645,0.313,1.342,0.468,2.037,0.468c0.689,0,1.377-0.16,2.01-0.46c0.01-0.002,0.02-0.002,0.03-0.008
				l76.906-37.117c1.623-0.783,2.653-2.424,2.653-4.224v-47.449c0-0.062-0.008-0.121-0.01-0.181l15.665-7.405
				c1.159-0.548,2.043-1.547,2.448-2.762C630.929,392.43,630.817,391.101,630.216,389.968L630.216,389.968z M530.821,341.554
				l61.42,16.579l-61.611,22.833l-61.579-22.823L530.821,341.554z M459.253,448.588v-40.074l50.938,24.078
				c0.633,0.301,1.318,0.45,2.004,0.45c0.548,0,1.095-0.095,1.619-0.287c1.181-0.434,2.137-1.325,2.657-2.47l10.308-22.8v73.692
				L459.253,448.588z M457.836,448.039v-41.387l52.714,24.866c0.655,0.311,1.364,0.465,2.074,0.465c0.567,0,1.133-0.098,1.675-0.296
				c1.222-0.449,2.212-1.368,2.749-2.551l10.668-23.546v76.106L457.836,448.039z M602.289,447.337l-67.526,32.59v-72.839
				l9.924,21.947c0.52,1.145,1.476,2.035,2.657,2.47c0.522,0.191,1.072,0.287,1.617,0.287c0.687,0,1.372-0.149,2.006-0.45
				l51.323-24.261L602.289,447.337L602.289,447.337z M602.119,447.603l-67.526,33.499V406.23l9.924,22.56
				c0.52,1.177,1.476,2.092,2.657,2.539c0.522,0.197,1.072,0.295,1.617,0.295c0.687,0,1.372-0.154,2.006-0.463l51.323-24.938
				L602.119,447.603L602.119,447.603z"/>
		</g>
		<g>
			<defs>
				<rect id="SVGID_7_" x="430.498" y="332.006" width="200.306" height="161.619"/>
			</defs>
			<clipPath id="SVGID_8_">
				<use xlink:href="#SVGID_7_"  overflow="visible"/>
			</clipPath>
			<path clip-path="url(#SVGID_8_)" fill="#FDB817" stroke="#FFFFFF" stroke-miterlimit="10" d="M638.993,619.497l-21.149-39.846
				c-0.717-1.35-1.939-2.28-3.326-2.661c-0.009-0.002-0.013-0.007-0.025-0.009l-88.102-23.782c-0.916-0.246-1.88-0.246-2.798-0.002
				l-88.545,23.782c-0.009,0.002-0.016,0.006-0.027,0.009c-1.387,0.382-2.611,1.311-3.329,2.664l-21.148,39.846
				c-0.689,1.299-0.818,2.823-0.354,4.219c0.464,1.394,1.478,2.54,2.808,3.166l18.4,8.699v54.429c0,2.065,1.181,3.95,3.041,4.845
				l88.213,42.573c0.74,0.359,1.54,0.537,2.337,0.537c0.791,0,1.579-0.183,2.305-0.528c0.011-0.002,0.023-0.002,0.034-0.009
				l88.212-42.573c1.862-0.898,3.043-2.78,3.043-4.845v-54.424c0-0.071-0.009-0.139-0.011-0.208l17.968-8.493
				c1.33-0.628,2.344-1.775,2.808-3.168C639.811,622.32,639.683,620.796,638.993,619.497L638.993,619.497z M524.987,563.965
				l70.449,19.017l-70.668,26.19l-70.631-26.178L524.987,563.965z M442.899,686.734v-45.965l58.426,27.617
				c0.726,0.345,1.512,0.516,2.298,0.516c0.628,0,1.256-0.109,1.857-0.329c1.355-0.498,2.451-1.519,3.047-2.833l11.824-26.151
				v84.525L442.899,686.734z M441.274,686.104v-47.471l60.463,28.522c0.752,0.356,1.565,0.533,2.378,0.533
				c0.65,0,1.3-0.113,1.921-0.339c1.402-0.515,2.537-1.569,3.154-2.925l12.236-27.008v87.294L441.274,686.104z M606.961,685.298
				l-77.452,37.381v-83.547l11.382,25.173c0.596,1.313,1.693,2.334,3.047,2.833c0.599,0.219,1.229,0.329,1.855,0.329
				c0.788,0,1.574-0.171,2.301-0.516l58.867-27.828V685.298z M606.766,685.603l-77.452,38.424v-85.878l11.382,25.876
				c0.596,1.35,1.693,2.4,3.047,2.912c0.599,0.225,1.229,0.338,1.855,0.338c0.788,0,1.574-0.176,2.301-0.531l58.867-28.604V685.603z
				"/>
		</g>
	</g>
</g>
<path fill="#D9DADE" d="M768.212,210.617c11.379-6.065,19.21-17.926,19.21-31.742c0-19.962-16.161-36.124-36.113-36.124
	c-19.961,0-36.133,16.161-36.133,36.124c0,13.816,7.84,25.676,19.229,31.742c-22.818,7.229-39.482,28.643-39.482,53.768v28.403
	h112.751v-28.403C807.674,239.26,791.01,217.846,768.212,210.617z"/>
<path fill="#FDB817" d="M768.754,402.981c11.901-6.343,20.09-18.748,20.09-33.196c0-20.877-16.902-37.779-37.768-37.779
	c-20.876,0-37.789,16.902-37.789,37.779c0,14.449,8.2,26.853,20.11,33.196c-23.864,7.56-41.291,29.956-41.291,56.233v29.705h117.919
	v-29.705C810.025,432.937,792.598,410.541,768.754,402.981z"/>
<g>
	<g>
		<g>
			<defs>
				<rect id="SVGID_9_" x="29.352" y="143.775" width="135.348" height="150.711"/>
			</defs>
			<clipPath id="SVGID_10_">
				<use xlink:href="#SVGID_9_"  overflow="visible"/>
			</clipPath>
			<path clip-path="url(#SVGID_10_)" fill="#D9DADE" d="M140.85,199.533c0,41.587-49.662,88.497-51.772,90.47
				c-1.118,1.045-2.543,1.556-3.986,1.556c-1.366,0-2.757-0.471-3.855-1.439c-2.129-1.881-51.884-46.341-51.884-90.587
				c0-30.745,25.013-55.758,55.739-55.758C115.836,143.775,140.85,168.788,140.85,199.533L140.85,199.533z M111.68,199.533
				c0-14.682-11.911-26.588-26.588-26.588c-14.682,0-26.569,11.906-26.569,26.588c0,14.658,11.887,26.569,26.569,26.569
				C99.769,226.102,111.68,214.21,111.68,199.533L111.68,199.533z"/>
		</g>
	</g>
</g>
<g>
	<g>
		<g>
			<defs>
				<rect id="SVGID_11_" x="25.816" y="334.364" width="135.348" height="150.711"/>
			</defs>
			<clipPath id="SVGID_12_">
				<use xlink:href="#SVGID_11_"  overflow="visible"/>
			</clipPath>
			<path clip-path="url(#SVGID_12_)" fill="#FDB817" d="M137.313,390.122c0,41.587-49.662,88.497-51.772,90.47
				c-1.118,1.045-2.543,1.556-3.986,1.556c-1.366,0-2.757-0.471-3.855-1.439c-2.129-1.881-51.884-46.341-51.884-90.587
				c0-30.745,25.013-55.758,55.739-55.758C112.3,334.364,137.313,359.377,137.313,390.122L137.313,390.122z M108.143,390.122
				c0-14.682-11.911-26.588-26.588-26.588c-14.682,0-26.569,11.906-26.569,26.588c0,14.658,11.887,26.569,26.569,26.569
				C96.232,416.691,108.143,404.799,108.143,390.122L108.143,390.122z"/>
		</g>
	</g>
</g>
<polyline fill="none" stroke="#FEC10D" stroke-width="4" stroke-miterlimit="10" points="965.082,344.741 981.545,365.002 
	998.007,344.741 "/>
<polyline fill="none" stroke="#FEC10D" stroke-width="4" stroke-miterlimit="10" points="925.865,338.409 905.604,354.871 
	925.865,371.334 "/>
<path fill="#FFFFFF" d="M894.445,137.228c0-0.003,0.075-0.022,0.34-0.022c40.952,0,73.925,35.965,73.925,80.33
	s-32.86,80.33-73.812,80.33c-0.265,0-0.453-0.019-0.453-0.022V137.228z"/>
<polyline fill="none" stroke="#0B3751" stroke-width="4" stroke-miterlimit="10" points="935.287,203.031 916.485,218.307 
	935.287,233.583 "/>
<path fill="#FFFFFF" d="M1082.445,139.228c0-0.003,0.058-0.022-0.208-0.022c-40.952,0-73.859,35.965-73.859,80.33
	s32.76,80.33,73.713,80.33c0.265,0,0.354-0.019,0.354-0.022V139.228z"/>
<polyline fill="none" stroke="#0B3751" stroke-width="4" stroke-miterlimit="10" points="1041.868,205.031 1060.67,220.307 
	1041.868,235.583 "/>
<polyline fill="none" stroke="#0B3751" stroke-width="4" stroke-miterlimit="10" points="920.649,412.261 901.847,427.538 
	920.649,442.814 "/>
<polyline fill="none" stroke="#FEC10D" stroke-width="4" stroke-miterlimit="10" points="1033.405,338.409 1053.667,354.871 
	1033.405,371.334 "/>
<polyline fill="none" stroke="#0B3751" stroke-width="4" stroke-miterlimit="10" points="1038.622,412.261 1057.423,427.538 
	1038.622,442.814 "/>
<polyline fill="none" stroke="#0B3751" stroke-width="4" stroke-miterlimit="10" points="966.868,418.137 982.144,436.939 
	997.421,418.137 "/>
</svg>
