<?xml version="1.0" encoding="utf-8"?>
<!-- Generator: Adobe Illustrator 18.1.0, SVG Export Plug-In . SVG Version: 6.00 Build 0)  -->
<svg version="1.1" id="Layer_1" xmlns="http://www.w3.org/2000/svg" xmlns:xlink="http://www.w3.org/1999/xlink" x="0px" y="0px"
	 viewBox="0 0 170.1 170.1" enable-background="new 0 0 170.1 170.1" xml:space="preserve">
<g>
	<path fill="#FFFFFF" d="M26,140.6l26-37.7c2.8,3.3,6,6,9.8,8.4c3.7,2.3,7.4,4.7,11.2,6l-26,37.7L26,140.6z"/>
	<path fill="#FFFFFF" d="M74.8,114.1c8.4,3.3,17.7,3.7,26.5,2.3c12.6-2.3,24.7-9.3,32.6-20.9c15.8-22.8,10.2-54.4-12.6-70.2
		c-11.6-7.9-25.1-10.7-37.7-8.4S59,26.2,51.1,37.8c-13.5,19.1-11.6,44.7,3.3,61.9c2.8,3.3,6,6,9.3,8.4
		C66.9,110.9,71.1,112.7,74.8,114.1z M118.6,42c-7-7-15.8-11.2-25.6-11.6c-10.2,0-19.5,3.7-26.5,10.2c-13.5,12.6-14.9,33-4.7,47.9
		c0.9,1.4,2.3,2.8,3.3,4.2l0,0l-2.8,2.8c-0.9-0.9-1.9-2.3-2.8-3.3c-12.1-16.3-10.7-39.5,4.2-54c7.9-7.4,18.1-11.2,28.8-11.2
		c10.7,0.5,20.9,4.7,28.4,12.6l-1.4,1.4l-0.5,0.5L118.6,42z"/>
</g>
</svg>
