<?xml version="1.0" encoding="utf-8"?>
<!-- Generator: Adobe Illustrator 18.1.0, SVG Export Plug-In . SVG Version: 6.00 Build 0)  -->
<svg version="1.1" id="Layer_1" xmlns="http://www.w3.org/2000/svg" xmlns:xlink="http://www.w3.org/1999/xlink" x="0px" y="0px"
	 viewBox="0 0 56.69 56.69" enable-background="new 0 0 56.69 56.69" xml:space="preserve">
<g>
	
		<linearGradient id="SVGID_1_" gradientUnits="userSpaceOnUse" x1="-16.0927" y1="-2070.4216" x2="-16.0927" y2="-2070.6418" gradientTransform="matrix(171.932 0 0 -171.932 2795.2585 -355962.5)">
		<stop  offset="0" style="stop-color:#2FBEE7"/>
		<stop  offset="1" style="stop-color:#16A8DA"/>
	</linearGradient>
	<circle fill="url(#SVGID_1_)" cx="28.407" cy="28.247" r="19.019"/>
	<g>
		<path fill="#FFFFFF" d="M37.661,20.17l-3.396,17.126c0,0-0.476,1.189-1.782,0.618l-7.838-6.01l-2.851-1.377l-4.798-1.616
			c0,0-0.736-0.262-0.807-0.832s0.832-0.878,0.832-0.878l19.073-7.481C36.094,19.718,37.661,19.03,37.661,20.17z"/>
		<path fill="#C7DEEA" d="M24.042,37.104c0,0-0.228-0.021-0.513-0.924c-0.285-0.904-1.734-5.654-1.734-5.654l11.521-7.316
			c0,0,0.664-0.404,0.641,0c0,0,0.12,0.071-0.237,0.405c-0.356,0.333-9.049,8.148-9.049,8.148"/>
		<path fill="#A7C8DD" d="M27.65,34.209l-3.1,2.828c0,0-0.243,0.184-0.507,0.069l0.593-5.251"/>
	</g>
</g>
</svg>
