<?xml version="1.0" encoding="utf-8"?>
<!-- Generator: Adobe Illustrator 18.1.0, SVG Export Plug-In . SVG Version: 6.00 Build 0)  -->
<svg version="1.1" id="Layer_1" xmlns="http://www.w3.org/2000/svg" xmlns:xlink="http://www.w3.org/1999/xlink" x="0px" y="0px"
	 viewBox="0 0 56.69 56.69" enable-background="new 0 0 56.69 56.69" xml:space="preserve">
<g>
	<circle fill="#6ECEF3" cx="28.345" cy="28.345" r="19.055"/>
	<path id="Twitter_13_" fill="#FFFFFF" d="M36.564,21.312c-0.7,0.425-1.474,0.734-2.3,0.899c-0.658-0.721-1.599-1.17-2.641-1.17
		c-1.996,0-3.616,1.66-3.616,3.71c0,0.291,0.031,0.572,0.094,0.845c-3.008-0.155-5.672-1.631-7.458-3.878
		c-0.312,0.549-0.488,1.189-0.488,1.868c0,1.287,0.637,2.423,1.61,3.088c-0.593-0.019-1.151-0.187-1.641-0.463v0.046
		c0,1.799,1.247,3.297,2.903,3.637c-0.304,0.088-0.623,0.13-0.954,0.13c-0.233,0-0.461-0.023-0.681-0.065
		c0.461,1.474,1.796,2.547,3.379,2.574c-1.239,0.996-2.799,1.589-4.494,1.589c-0.291,0-0.581-0.017-0.864-0.05
		c1.602,1.05,3.503,1.664,5.547,1.664c6.655,0,10.295-5.651,10.295-10.554c0-0.161-0.004-0.323-0.008-0.48
		c0.706-0.522,1.321-1.176,1.805-1.92c-0.648,0.296-1.346,0.495-2.077,0.585C35.722,22.905,36.294,22.178,36.564,21.312z"/>
</g>
</svg>
